# xmcd
#
# Track frame offsets:
#	150
#	15336
#	36243
#	50803
#	69367
#	87054
#	106961
#	120658
#	134108
#	148142
#	166255
#	182028
#	196766
#
# Disc length: 2796 seconds
#
# Revision: 2
# Processed by: cddbd v1.5.1PL2 Copyright (c) Steve Scherf et al.
# Submitted via: EasyCDDAExtractor 9.0.0.1
#
DISCID=b30aea0d
DTITLE=Alecia Nugent - A Little Girl ... A Big Four-Lane
DYEAR=2006
DGENRE=Country
TTITLE0=Too Good To Be True
TTITLE1=Muddy River
TTITLE2=God Knows What
TTITLE3=A Dozen White Roses
TTITLE4=Where His Wheels Left The Road
TTITLE5=I Cried All The Way To Kentucky
TTITLE6=When It Comes Down To Us (It's All Up To You) (with Bradley Walker)
TTITLE7=You've Still Got It
TTITLE8=Breaking New Ground
TTITLE9=It Won't Be me
TTITLE10=Letter from Home
TTITLE11=Somewhere Else To Fall
TTITLE12=Meet Me In Heaven Someday
EXTD=
EXTT0=
EXTT1=
EXTT2=
EXTT3=
EXTT4=
EXTT5=
EXTT6=
EXTT7=
EXTT8=
EXTT9=
EXTT10=
EXTT11=
EXTT12=
PLAYORDER=
